PathFileType	4	(X/Y/Z)	C:\Users\WrightLab\Desktop\Jo\P1.2Trial8.trc
DataRate	CameraRate	NumFrames	NumMarkers	Units	OrigDataRate	OrigDataStartFrame	OrigNumFrames
100.00	100.00	       19	19	mm	100.00	710	       946
Frame#	Time	Headset_Front			Headset_Back			Headset_Left			Headset_Right			Left_Shoulder			Right_Shoulder			Sternum			C7			Left Elbow			Right Elbow			Left Wrist			Right Wrist			Left ASIS			Right ASIS			S2			Left Knee			Right Knee			Left Ankle			Right Ankle			
		X1	Y1	Z1	X2	Y2	Z2	X3	Y3	Z3	X4	Y4	Z4	X5	Y5	Z5	X6	Y6	Z6	X7	Y7	Z7	X8	Y8	Z8	X9	Y9	Z9	X10	Y10	Z10	X11	Y11	Z11	X12	Y12	Z12	X13	Y13	Z13	X14	Y14	Z14	X15	Y15	Z15	X16	Y16	Z16	X17	Y17	Z17	X18	Y18	Z18	X19	Y19	Z19	

710	7.090	-572.44739	1372.51123	-878.58936	-670.99103	1496.28296	-616.71802	-735.08636	1433.08362	-760.17413	-506.78925	1412.21362	-747.92914	-863.40906	1220.86963	-690.88574	-441.38565	1241.12610	-653.59711	-641.56036	1160.73816	-783.11597	-664.33081	1291.13623	-556.58606	-934.81970	937.18048	-678.34521	-349.71478	997.26129	-615.02148	-659.79926	897.07751	-472.05249	-286.79083	767.31592	-752.03204	-766.86310	846.91400	-779.23962	-500.47867	835.20966	-744.94324	-956.25824	742.81958	-821.22632	-818.68091	447.90201	-839.39465	-505.83615	405.51807	-687.58545	-839.29303	163.29311	-571.94006				
711	7.100	-570.76489	1373.11279	-886.40881	-670.74927	1496.15613	-624.09882	-734.00922	1433.06714	-767.95758				-862.22711	1221.07214	-699.17773	-440.31406	1241.23169	-660.16864	-639.42407	1161.40552	-790.86060	-663.94788	1290.66565	-564.18744	-933.53894	935.83978	-686.74786	-347.52505	998.15784	-622.83057	-660.88940	896.48474	-481.45020	-285.85797	770.37921	-764.93860	-764.27417	847.03638	-789.19879	-500.18335	835.32324	-750.78137	-954.64539	743.88300	-832.97314	-814.32257	451.35892	-854.68341	-501.42712	404.30380	-690.33917	-837.71527	155.58934	-600.66370				
712	7.110	-569.07550	1373.59082	-894.30035	-669.78870	1496.16968	-632.08453	-732.81519	1433.13269	-776.13092	-504.50699	1412.88660	-760.60046	-860.70978	1220.97778	-707.82172	-438.71124	1242.21045	-663.91168	-637.27338	1161.81836	-798.86218	-662.49762	1289.93909	-571.38812	-932.49182	935.94659	-696.21558	-346.31717	998.23096	-630.84460	-661.67719	895.07996	-489.44220	-285.04034	772.21881	-777.54077	-761.27905	847.19672	-798.79059	-498.02979	835.96918	-756.94507	-952.68506	745.27533	-844.28235	-809.36896	455.45322	-870.14996	-497.28156	403.37054	-692.90106	-836.97095	147.74272	-631.27386				
713	7.120	-567.21729	1374.22864	-901.52490	-669.06470	1495.64001	-639.65936	-731.73260	1432.85278	-784.70990	-503.45502	1413.62000	-768.80774	-859.43860	1220.51880	-715.91626	-438.00381	1242.24658	-674.22229	-635.35468	1162.11316	-807.12219	-661.72406	1289.87817	-580.30017	-931.67639	936.58514	-705.53424	-344.20419	998.96008	-639.12152	-661.61658	895.11981	-499.06592	-284.34897	773.81134	-787.97211	-758.25635	847.65826	-809.39691	-496.84207	836.88885	-763.59027	-951.00751	746.11383	-855.22681	-804.53339	459.14990	-885.76965	-494.33340	403.88245	-697.33051	-836.32306	140.18181	-661.93176				
714	7.130	-565.59045	1374.26367	-908.99597				-730.53278	1432.75659	-792.68683				-857.90515	1220.13098	-724.77753	-436.96890	1242.00366	-682.48987	-633.40314	1162.01599	-815.27234	-661.81842	1289.75684	-588.94861	-930.22668	935.90985	-714.31561	-342.95361	999.25122	-647.62598	-662.50897	894.23199	-508.50140	-284.31738	775.69214	-800.19794	-755.31232	847.59424	-818.82153	-495.46625	836.54541	-769.63391	-949.50128	746.83923	-866.43262	-799.63129	461.37268	-898.68042	-491.03159	402.51712	-701.52252	-835.03400	132.67155	-693.97766				
715	7.140	-563.70618	1374.61304	-917.06458	-667.61829	1495.09119	-655.06403	-729.40582	1432.31116	-801.02893				-856.48419	1219.76746	-734.14429	-435.15472	1241.93835	-689.68085	-631.57532	1162.02759	-823.70074	-661.62207	1290.05627	-598.35156	-928.56891	934.55322	-723.44391	-340.87222	998.70392	-654.81073	-664.47430	893.48938	-519.64642	-283.90726	776.80768	-810.89673	-752.52222	846.96350	-828.97046	-493.86438	836.17120	-775.81732	-948.06091	746.95935	-876.28479	-794.03479	464.36917	-912.36493	-488.29095	401.94626	-705.92633	-834.91583	125.73497	-726.27594				
716	7.150	-562.01221	1374.45642	-924.86298	-668.15234	1494.89331	-663.57483	-728.31763	1431.48645	-809.12744	-499.41672	1413.82434	-790.68304	-855.33539	1219.55383	-742.98553	-434.57559	1241.19946	-696.86920	-629.75439	1161.37622	-831.76733	-661.01379	1289.30981	-606.46362	-927.25385	934.43335	-731.98615	-340.17773	998.30591	-662.71094	-666.67810	892.42700	-527.23181	-284.00424	778.64508	-822.29364	-749.51331	846.40942	-838.46979	-491.27280	837.07593	-782.60718	-946.68976	746.90979	-885.68707	-788.77191	466.07446	-925.53949	-486.44653	400.73605	-711.19904	-834.06573	118.90988	-759.08185				
717	7.160	-560.35864	1374.17981	-932.76617	-667.33966	1494.29260	-671.84412	-727.13776	1430.98877	-817.74268				-853.88074	1219.02234	-752.72931	-432.74139	1240.74780	-704.75146	-628.06891	1160.93042	-840.07172	-660.33881	1288.38293	-614.25647	-926.17102	934.41559	-740.97644	-339.10977	998.00653	-671.19843	-667.76630	892.24097	-534.76270	-284.27866	778.99091	-832.17169	-746.55396	845.63824	-848.59119	-490.07660	836.93414	-788.11377	-945.69238	746.01660	-894.88440	-783.06982	467.51663	-938.01251	-483.80792	400.28589	-717.02460	-831.84253	112.06478	-792.41461				
718	7.170	-558.46954	1374.08826	-940.96509	-666.64398	1493.45728	-679.80664	-725.86224	1430.37390	-826.58099	-497.32767	1413.07751	-803.91589	-851.75739	1216.45715	-761.12592	-432.39706	1239.98157	-712.70758	-626.25354	1160.25012	-848.46600	-659.73755	1288.35522	-622.44128	-924.74030	932.92328	-750.28448	-337.69366	997.59106	-680.47424	-669.63080	891.33960	-545.18311	-284.35785	779.23517	-841.20630	-743.70160	844.66998	-858.14191	-488.18893	836.12610	-794.22742	-944.58826	745.46381	-904.12604	-777.42633	467.83249	-949.04987	-483.53961	398.86859	-721.00037	-830.15338	106.04679	-827.02991				
719	7.180	-556.66791	1374.02185	-949.18756	-667.18951	1493.18542	-688.05817	-724.62311	1429.46448	-834.87408				-850.48651	1215.00269	-769.49835	-430.77835	1239.50427	-716.08423	-624.61853	1159.55225	-857.35803	-658.72992	1287.02759	-630.66180	-922.40753	931.82874	-759.04865	-339.30737	995.65833	-688.96619	-672.03772	890.33319	-555.51764	-284.49438	779.43396	-851.15112	-740.56866	843.75830	-868.34515	-486.12958	835.44843	-800.41284	-943.81677	743.92548	-912.34552	-771.37640	467.96826	-959.95892	-483.47485	396.93771	-725.56433							
720	7.190	-554.76141	1373.67651	-957.41687	-664.98730	1491.48279	-696.73169	-723.37695	1428.75928	-843.79901				-849.37769	1214.45081	-779.72021	-430.01721	1238.92078	-724.70245	-622.90643	1158.46509	-866.20691	-657.62988	1285.51599	-639.48828	-920.55182	930.01770	-768.05585	-339.23309	993.97931	-696.76117	-673.54553	889.69806	-565.52472	-284.76593	779.09760	-860.79572	-737.60608	842.52057	-878.24469	-485.06592	834.39685	-806.85065	-942.95898	742.23236	-920.04803	-765.16608	467.78860	-970.54401	-482.44547	396.20782	-729.78680							
721	7.200	-552.90796	1373.39001	-965.81036	-664.48987	1490.42419	-705.21033	-722.08344	1427.86987	-852.59009	-495.39423	1412.27063	-832.03418	-847.61597	1212.68811	-789.23590	-428.89038	1237.09106	-730.90808	-621.14581	1157.54980	-875.30054	-658.05457	1284.87732	-649.17163	-919.16803	928.88477	-776.49054	-338.00919	992.63342	-704.91882	-675.08691	890.26428	-569.40179	-285.12201	777.72144	-868.89526	-734.91504	841.01306	-887.59436	-482.95721	833.54364	-814.02985	-942.29370	740.38898	-928.04926	-758.83081	466.72083	-980.30035	-481.62665	395.61356	-735.87671							
722	7.210	-550.97784	1373.12573	-974.04413	-664.58044	1489.02026	-713.40112	-720.85919	1426.67090	-861.26154				-846.57751	1211.49854	-798.77521	-427.83328	1235.21985	-737.30957	-619.60431	1155.86389	-883.81519	-658.16840	1284.19958	-658.62531	-917.73773	927.68115	-785.90576	-338.20419	991.39362	-713.46777	-677.29120	886.29822	-584.22760	-286.27197	776.72711	-877.68359	-732.27472	839.77954	-897.23053	-481.58551	832.63947	-821.29279	-941.58203	738.28497	-935.78406	-752.99365	464.30350	-988.99091	-481.09845	394.50064	-741.19128	-466.02881	695.07086	-509.71750				
723	7.220	-549.05011	1372.50342	-982.46710	-664.33899	1487.24316	-721.98767	-719.62854	1425.29956	-870.14630	-490.85303	1410.26550	-846.71918	-845.87109	1211.16589	-810.53955	-427.19971	1234.46497	-746.63843	-617.81470	1154.75598	-893.72101	-656.57318	1282.31531	-667.47113	-916.66901	926.71344	-794.57141	-337.38660	990.86401	-722.26849	-678.46204	886.22620	-593.56049	-285.81528	775.69116	-886.63977	-730.05463	838.17578	-906.81311				-940.93591	735.78094	-943.08362				-480.02597	393.69794	-746.27185	-465.05045	695.59296	-522.69214				
724	7.230	-547.28003	1371.46179	-990.87225	-664.77130	1485.31726	-730.14038	-718.29163	1424.25964	-879.32037	-493.51163	1408.23022	-857.51001	-844.00977	1208.26013	-819.04773	-426.06342	1232.94739	-755.59729	-616.06409	1153.14771	-902.18518	-656.51453	1280.22290	-676.34955	-915.44183	925.14081	-803.22614	-337.44672	988.37952	-728.81812	-679.13531	885.04608	-599.13165	-286.10016	773.87445	-894.35364	-727.99005	836.59497	-916.27081				-940.15955	733.35632	-950.11267				-479.05481	391.87036	-751.01093	-464.35373	694.82153	-534.15002	-811.68036	98.42878	-1029.83887	
725	7.240	-545.33435	1370.77515	-999.48114	-663.54156	1483.74878	-738.89697	-717.05957	1422.68823	-888.60986	-489.82425	1407.87891	-862.41998	-843.93518	1206.51965	-829.12604	-425.89755	1230.24231	-760.43848	-614.21735	1151.47839	-911.44574	-656.60052	1278.49524	-685.70154	-913.42316	923.48767	-812.52667	-337.35413	986.80939	-735.90839	-680.60352	883.41400	-609.45508	-286.76340	771.36475	-901.73181	-726.25128	834.70898	-925.96326				-939.43213	730.53662	-956.70343				-478.76349	390.78778	-755.77466	-463.70764	693.11029	-543.73608				
726	7.250	-543.37512	1369.87073	-1007.63446	-663.40027	1481.20959	-747.58972	-715.90479	1420.98474	-897.45392	-488.25659	1406.80396	-870.21027	-843.03345	1204.52966	-839.36877	-425.37518	1228.79602	-769.67029	-612.46021	1149.71631	-920.79498	-657.65839	1276.76660	-695.22650	-912.19781	921.40363	-820.62695	-336.98923	984.05426	-743.58136	-682.92761	880.85468	-623.09167	-286.92264	769.31879	-909.10175	-724.24823	833.43250	-935.82391				-938.77319	727.71997	-963.91882				-477.84375	390.70154	-761.45923	-462.98734	691.07758	-552.95050	-798.94434	109.45692	-1084.83655	
727	7.260	-541.45184	1368.36938	-1015.50562	-663.29553	1479.60767	-756.58252	-714.61017	1419.27771	-906.74951	-488.27911	1404.74365	-878.56183	-841.77417	1203.83618	-853.09833	-424.83484	1226.58252	-777.65143	-610.61072	1147.95618	-930.08466	-656.27393	1274.15857	-703.98096	-910.97363	918.78906	-829.51929	-337.84357	981.81818	-750.45587	-684.69525	877.09393	-632.39093	-287.05484	766.62280	-916.75153	-722.86877	831.06238	-945.79108	-723.32251	453.19080	-1045.51599	-938.39063	724.19214	-970.78748				-476.55310	388.84457	-765.30890	-462.23468	689.04083	-562.30597				
728	7.270	-539.29297	1367.44263	-1024.58606	-662.21393	1476.73621	-764.79956	-713.26398	1417.79358	-916.28180	-486.82813	1403.41553	-888.28906	-840.99091	1201.83618	-864.39911	-424.98022	1223.70984	-783.31006	-609.11810	1145.92712	-939.30084	-657.12079	1272.03235	-714.14960	-909.25073	916.86987	-838.22028	-337.67548	979.41003	-759.18451	-686.89606	875.36353	-641.12463	-286.69333	763.91772	-922.79083	-720.86719	829.36151	-955.87378	-717.89862	448.30090	-1052.98047	-937.53009	721.53748	-978.30389				-476.07001	387.57108	-770.46552	-461.29303	686.55444	-570.42694				
